<svg width="161" height="301" viewBox="0 0 161 301" fill="none" xmlns="http://www.w3.org/2000/svg">
<g filter="url(#filter0_d_1_275)">
<path fill-rule="evenodd" clip-rule="evenodd" d="M419.356 253.374C402.353 237.094 379.165 217.005 353.271 211.074C345.165 209.218 336.793 208.748 328.263 210.216C322.142 208.968 315.875 208.525 309.507 209.121C308.898 208.965 308.287 208.817 307.674 208.677C303.061 207.62 298.36 207.013 293.594 206.956C291.337 206.217 289.055 205.578 286.753 205.051C286.035 204.886 285.315 204.733 284.594 204.591C268.412 189.76 247.83 173.735 225.176 168.547C212.22 165.579 198.582 166.155 184.707 172.524C170.834 178.893 156.746 191.043 142.869 211.186C110.548 258.104 109.859 301.062 109.328 334.115C109.279 337.184 109.231 340.167 109.159 343.061C108.737 360.11 107.485 373.949 100.355 383.749C93.2404 393.529 80.2057 399.363 56.0087 400.198L56.0083 400.787C80.2545 399.95 93.5113 394.103 100.788 384.101C108.05 374.12 109.29 360.078 109.712 343.057C109.784 340.161 109.832 337.177 109.881 334.109C110.413 301.063 111.101 258.281 143.311 211.525C157.143 191.446 171.156 179.379 184.911 173.065C198.664 166.751 212.182 166.177 225.043 169.123C247.231 174.205 267.454 189.76 283.505 204.385C282.982 204.29 282.459 204.202 281.934 204.119C281.079 203.752 280.219 203.398 279.356 203.057C266.558 193.237 252.052 184.638 236.579 181.094C223.623 178.126 209.985 178.702 196.11 185.072C182.237 191.44 168.149 203.59 154.272 223.733C121.951 270.651 121.262 313.609 120.731 346.662L120.731 346.664C120.682 349.732 120.634 352.715 120.563 355.608C120.14 372.657 118.889 386.496 111.759 396.296C104.644 406.076 91.6089 411.91 67.4118 412.745L67.4114 413.334C91.6577 412.497 104.914 406.65 112.191 396.648C119.453 386.667 120.694 372.625 121.115 355.604C121.187 352.712 121.235 349.731 121.284 346.667L121.284 346.657C121.816 313.61 122.504 270.828 154.714 224.072C168.546 203.993 182.559 191.926 196.314 185.612C210.067 179.298 223.585 178.724 236.446 181.67C251.183 185.046 265.053 193.041 277.41 202.315C277.232 202.25 277.053 202.185 276.875 202.12C268.608 197.331 259.858 193.509 250.775 191.428C237.819 188.461 224.181 189.036 210.306 195.406C196.433 201.775 182.344 213.925 168.468 234.068C136.147 280.986 135.458 323.944 134.927 356.997C134.878 360.066 134.83 363.049 134.758 365.943C134.336 382.992 133.084 396.831 125.954 406.631C118.839 416.411 105.805 422.245 81.6074 423.08L81.6071 423.669C105.853 422.832 119.11 416.984 126.387 406.983C133.649 397.001 134.889 382.96 135.311 365.939C135.383 363.043 135.431 360.059 135.48 356.991C136.012 323.945 136.7 281.162 168.91 234.407C182.742 214.328 196.754 202.261 210.51 195.946C224.263 189.633 237.781 189.059 250.642 192.005C258.668 193.843 266.437 197.052 273.844 201.091C271.791 200.437 269.719 199.866 267.629 199.388C254.673 196.42 241.035 196.996 227.16 203.366C213.287 209.734 199.198 221.884 185.322 242.027C153.001 288.945 152.312 331.903 151.781 364.956C151.732 368.025 151.684 371.009 151.612 373.902C151.19 390.951 149.938 404.79 142.808 414.59C135.693 424.37 122.659 430.204 98.4615 431.039L98.4612 431.628C122.707 430.791 135.964 424.944 143.241 414.942C150.503 404.961 151.743 390.919 152.165 373.898C152.237 371.003 152.285 368.019 152.334 364.951C152.866 331.904 153.554 289.122 185.764 242.366C199.596 222.287 213.608 210.22 227.364 203.906C241.117 197.592 254.635 197.018 267.496 199.964C270.584 200.672 273.633 201.582 276.639 202.664C277.199 202.988 277.757 203.318 278.312 203.651C267.926 202.598 257.178 204.027 246.284 209.028C232.411 215.397 218.322 227.547 204.446 247.69C172.125 294.608 171.436 337.566 170.905 370.619C170.856 373.688 170.808 376.672 170.736 379.565C170.314 396.614 169.062 410.453 161.932 420.253C154.817 430.033 141.783 435.867 117.585 436.702L117.585 437.291C141.831 436.454 155.088 430.607 162.365 420.605C169.627 410.624 170.867 396.582 171.289 379.561C171.36 376.695 171.408 373.742 171.457 370.707L171.457 370.682L171.457 370.671L171.457 370.664L171.458 370.644L171.458 370.638L171.458 370.619L171.458 370.613C171.99 337.567 172.678 294.785 204.888 248.029C218.72 227.95 232.732 215.883 246.488 209.569C257.729 204.408 268.814 203.082 279.511 204.379C280.512 204.994 281.506 205.622 282.491 206.263C283.039 206.702 283.584 207.144 284.125 207.586C278.545 208.405 272.895 210.043 267.205 212.655C253.332 219.023 239.244 231.173 225.367 251.317C193.046 298.234 192.357 341.192 191.827 374.245L191.827 374.247C191.777 377.315 191.729 380.298 191.658 383.191C191.235 400.24 189.984 414.08 182.854 423.88C175.739 433.659 162.704 439.493 138.507 440.328L138.507 440.917C162.753 440.08 176.01 434.233 183.286 424.231C190.548 414.25 191.789 400.208 192.21 383.187C192.282 380.298 192.33 377.321 192.379 374.26L192.379 374.26L192.38 374.241L192.38 374.24C192.911 341.193 193.6 298.411 225.809 251.655C239.641 231.576 253.654 219.51 267.409 213.195C273.239 210.519 279.026 208.874 284.739 208.091C287.007 209.96 289.213 211.852 291.353 213.741C290.733 214.003 290.113 214.277 289.492 214.562C275.62 220.93 261.531 233.08 247.655 253.223C215.334 300.141 214.644 343.099 214.114 376.152C214.065 379.221 214.017 382.205 213.945 385.098C213.523 402.147 212.271 415.986 205.141 425.786C198.026 435.566 184.991 441.4 160.794 442.235L160.794 442.824C185.04 441.987 198.297 436.14 205.574 426.138C212.836 416.157 214.076 402.115 214.498 385.094C214.57 382.199 214.618 379.215 214.667 376.147C215.199 343.1 215.887 300.318 248.097 253.562C261.929 233.483 275.941 221.416 289.697 215.102C290.409 214.775 291.121 214.463 291.833 214.166C294.884 216.873 297.799 219.573 300.563 222.194C290.691 229.227 280.775 239.473 270.964 253.714C238.643 300.631 237.953 343.59 237.423 376.642C237.374 379.712 237.326 382.695 237.254 385.589C236.832 402.638 235.58 416.477 228.45 426.277C221.335 436.056 208.3 441.89 184.103 442.726L184.103 443.315C208.349 442.478 221.606 436.63 228.883 426.629C236.145 416.647 237.385 402.606 237.807 385.585C237.879 382.689 237.927 379.705 237.976 376.637C238.508 343.59 239.196 300.808 271.406 254.053C281.226 239.797 291.137 229.58 300.983 222.593C301.422 223.01 301.856 223.425 302.287 223.838L302.664 223.393C302.269 223.015 301.87 222.634 301.468 222.252C301.838 221.993 302.208 221.739 302.577 221.49C307.56 225.763 312.213 230.085 316.483 234.172L316.86 233.728C312.631 229.68 308.021 225.396 303.081 221.152C304.183 220.42 305.284 219.728 306.384 219.075C316.431 226.393 325.526 234.653 333.337 242.132L333.714 241.687C325.963 234.266 316.927 226.053 306.935 218.751C308.669 217.741 310.4 216.826 312.127 216.003C327.542 224.849 341.311 237.119 352.461 247.795L352.838 247.35C341.781 236.764 328.108 224.566 312.776 215.698L312.859 215.66L313.006 215.592C315.178 214.595 317.344 213.741 319.502 213.022C340.411 221.358 359.057 237.705 373.382 251.421L373.759 250.976C359.589 237.409 341.124 221.197 320.376 212.738C323.009 211.903 325.63 211.268 328.237 210.815C328.769 210.924 329.299 211.039 329.828 211.16C355.569 217.056 378.664 237.045 395.67 253.328L396.047 252.883C379.044 236.604 355.856 216.515 329.962 210.584L329.847 210.558C337.78 209.403 345.573 209.918 353.138 211.651C378.878 217.547 401.973 237.536 418.979 253.818L419.356 253.374ZM284.334 205.142L284.165 205.11L284.335 205.188L284.432 205.233L284.334 205.142ZM287.206 207.806C288.462 208.982 289.688 210.145 290.884 211.291L291.261 210.846C290.193 209.823 289.1 208.786 287.984 207.737C288.052 207.732 288.12 207.727 288.188 207.721C290.789 209.058 293.349 210.501 295.862 212.03C294.938 212.341 294.013 212.677 293.087 213.037C290.791 211.286 288.441 209.576 286.04 207.928C286.429 207.883 286.818 207.842 287.206 207.806ZM285.882 206.571C286.134 206.805 286.385 207.039 286.635 207.272C286.192 207.318 285.748 207.369 285.304 207.425C284.48 206.867 283.651 206.316 282.816 205.773C282.34 205.392 281.862 205.012 281.381 204.633L281.546 204.658C281.622 204.669 281.698 204.681 281.773 204.693C283.153 205.286 284.523 205.913 285.882 206.571ZM286.196 206.068C285.944 205.835 285.692 205.601 285.438 205.367C285.833 205.45 286.226 205.537 286.62 205.627C288.308 206.014 289.984 206.461 291.649 206.964C290.539 206.986 289.427 207.038 288.311 207.122C287.609 206.763 286.904 206.411 286.196 206.068ZM291.951 213.492C290.55 212.252 289.12 211.01 287.662 209.773C289.282 210.921 290.879 212.095 292.451 213.289L292.333 213.336C292.206 213.388 292.079 213.44 291.951 213.492ZM301.047 221.852C298.321 219.265 295.445 216.597 292.433 213.919C292.618 213.844 292.803 213.77 292.988 213.698C296.14 216.109 299.191 218.598 302.129 221.106C301.768 221.35 301.408 221.599 301.047 221.852ZM302.631 220.767C303.715 220.043 304.798 219.358 305.881 218.709C302.84 216.511 299.713 214.401 296.509 212.427C295.55 212.741 294.589 213.082 293.626 213.45C296.732 215.835 299.738 218.293 302.631 220.767ZM296.594 211.789C294.21 210.326 291.783 208.938 289.318 207.644C290.714 207.562 292.105 207.53 293.491 207.545C296.098 208.401 298.674 209.39 301.214 210.493C299.678 210.859 298.138 211.29 296.594 211.789ZM306.43 218.383C303.449 216.221 300.385 214.142 297.245 212.191C298.87 211.682 300.491 211.248 302.106 210.885C305.304 212.311 308.444 213.915 311.519 215.657C309.826 216.477 308.129 217.385 306.43 218.383ZM312.549 215.169L312.68 215.108L312.801 215.052C314.761 214.152 316.717 213.368 318.666 212.693C315.638 211.521 312.563 210.518 309.448 209.717C307.335 209.918 305.211 210.235 303.078 210.676C306.164 212.083 309.196 213.652 312.166 215.348C312.227 215.319 312.289 215.29 312.35 215.261L312.471 215.205L312.549 215.169ZM302.178 210.271C304.053 209.856 305.92 209.538 307.78 209.309L307.671 209.283L307.541 209.253C303.579 208.346 299.554 207.772 295.479 207.598C297.738 208.396 299.971 209.292 302.178 210.271ZM319.535 212.399C316.795 211.314 314.017 210.365 311.204 209.576C316.439 209.234 321.604 209.59 326.673 210.512C324.305 210.986 321.925 211.611 319.535 212.399ZM216.357 154.177C242.251 160.108 265.439 180.197 282.442 196.476L282.065 196.921C265.059 180.638 241.964 160.649 216.224 154.753C203.363 151.807 189.845 152.381 176.092 158.695C162.337 165.009 148.324 177.076 134.492 197.155C102.282 243.911 101.594 286.693 101.062 319.739C101.013 322.807 100.965 325.792 100.893 328.687C100.471 345.708 99.2308 359.75 91.969 369.731C84.6922 379.733 71.4354 385.58 47.1892 386.417L47.1896 385.828C71.3866 384.993 84.4213 379.159 91.5363 369.379C98.6663 359.579 99.9179 345.74 100.34 328.691C100.412 325.798 100.46 322.814 100.509 319.745C101.04 286.692 101.729 243.734 134.05 196.816C147.926 176.673 162.015 164.523 175.888 158.154C189.763 151.785 203.401 151.209 216.357 154.177ZM275.727 180.765C258.724 164.486 235.536 144.397 209.642 138.466C196.686 135.498 183.048 136.074 169.173 142.443C155.3 148.812 141.212 160.962 127.335 181.105C95.0143 228.023 94.325 270.981 93.7946 304.034C93.7454 307.103 93.6975 310.087 93.6258 312.98C93.2033 330.029 91.9517 343.868 84.8217 353.668C77.7067 363.448 64.672 369.282 40.4749 370.117L40.4746 370.706C64.7208 369.869 77.9776 364.022 85.2544 354.02C92.5162 344.039 93.7567 329.997 94.1785 312.976C94.2502 310.081 94.2982 307.097 94.3476 304.029C94.8792 270.982 95.5676 228.2 127.777 181.444C141.609 161.365 155.622 149.298 169.377 142.984C183.13 136.67 196.648 136.096 209.509 139.042C235.25 144.938 258.345 164.927 275.35 181.21L275.727 180.765ZM204.441 121.859C230.336 127.79 253.524 147.879 270.526 164.158L270.15 164.603C253.144 148.321 230.049 128.331 204.308 122.435C191.447 119.49 177.929 120.063 164.177 126.377C150.421 132.691 136.409 144.758 122.576 164.837C90.3668 211.593 89.6785 254.375 89.1468 287.422L89.1467 287.429C89.0974 290.495 89.0494 293.476 88.9777 296.369C88.5559 313.39 87.3154 327.432 80.0536 337.413C72.7768 347.415 59.52 353.262 35.2738 354.099L35.2742 353.51C59.4712 352.675 72.506 346.841 79.621 337.061C86.7509 327.261 88.0025 313.422 88.425 296.373C88.4966 293.485 88.5444 290.506 88.5936 287.442L88.5937 287.435L88.5938 287.427C89.1242 254.374 89.8136 211.416 122.135 164.498C136.011 144.355 150.1 132.205 163.972 125.837C177.848 119.467 191.485 118.891 204.441 121.859ZM266.268 147.025C249.265 130.746 226.077 110.657 200.183 104.726C187.227 101.758 173.589 102.334 159.714 108.704C145.841 115.072 131.753 127.222 117.876 147.365C85.5551 194.283 84.8657 237.241 84.3353 270.294C84.2861 273.363 84.2382 276.347 84.1665 279.24C83.744 296.289 82.4924 310.128 75.3625 319.928C68.2474 329.708 55.2127 335.542 31.0157 336.377L31.0153 336.966C55.2615 336.129 68.5183 330.282 75.7951 320.28C83.0569 310.299 84.2974 296.257 84.7192 279.236C84.7909 276.341 84.839 273.357 84.8883 270.289C85.42 237.242 86.1083 194.46 118.318 147.704C132.15 127.625 146.163 115.558 159.918 109.244C173.671 102.93 187.189 102.356 200.05 105.302C225.79 111.198 248.885 131.187 265.891 147.47L266.268 147.025ZM196.385 87.3431C222.279 93.2742 245.467 113.363 262.47 129.643L262.093 130.087C245.088 113.805 221.993 93.8155 196.252 87.9196C183.391 84.9738 169.873 85.5476 156.12 91.8611C142.365 98.1758 128.352 110.242 114.52 130.321C82.3105 177.077 81.6222 219.859 81.0905 252.906L81.0904 252.914C81.0411 255.979 80.9931 258.96 80.9214 261.854C80.4996 278.874 79.2591 292.916 71.9973 302.897C64.7205 312.899 51.4637 318.747 27.2175 319.583L27.2179 318.994C51.415 318.159 64.4497 312.325 71.5647 302.546C78.6947 292.746 79.9462 278.907 80.3687 261.857C80.4403 258.971 80.4881 255.994 80.5372 252.932L80.5373 252.928L80.5375 252.914L80.5375 252.911C81.0679 219.859 81.7573 176.9 114.078 129.983C127.955 109.84 142.043 97.6894 155.916 91.3208C169.791 84.9511 183.429 84.3755 196.385 87.3431ZM258.75 112.22C241.747 95.9409 218.559 75.8518 192.665 69.9208C179.709 66.9532 166.071 67.5288 152.196 73.8985C138.323 80.2671 124.235 92.4174 110.358 112.56C78.0371 159.478 77.3477 202.436 76.8174 235.489C76.7681 238.558 76.7202 241.542 76.6485 244.435C76.226 261.484 74.9744 275.323 67.8445 285.123C60.7295 294.903 47.6947 300.737 23.4977 301.572L23.4973 302.161C47.7435 301.324 61.0003 295.477 68.2771 285.475C75.5389 275.494 76.7794 261.452 77.2012 244.431C77.273 241.536 77.321 238.552 77.3703 235.484C77.902 202.437 78.5903 159.655 110.8 112.899C124.632 92.8202 138.645 80.7534 152.4 74.4387C166.153 68.1252 179.671 67.5515 192.532 70.4973C218.272 76.3931 241.367 96.3824 258.373 112.665L258.75 112.22ZM188.734 52.6083C214.629 58.5393 237.816 78.6283 254.819 94.9079L254.443 95.3522C237.437 79.0699 214.342 59.0806 188.601 53.1848C175.74 50.2389 162.222 50.8127 148.47 57.1262C134.714 63.4409 120.702 75.5076 106.869 95.5865C74.6597 142.342 73.9714 185.124 73.4397 218.171L73.4397 218.176L73.4392 218.207C73.39 221.262 73.3421 224.234 73.2706 227.119C72.8488 244.14 71.6083 258.181 64.3465 268.162C57.0697 278.164 43.8129 284.012 19.5667 284.849L19.5671 284.259C43.7641 283.424 56.7988 277.59 63.9139 267.811C71.0439 258.011 72.2954 244.172 72.7179 227.123C72.7896 224.229 72.8375 221.245 72.8867 218.176C73.4171 185.124 74.1065 142.165 106.428 95.2479C120.304 75.1049 134.392 62.9545 148.265 56.586C162.141 50.2163 175.778 49.6407 188.734 52.6083ZM250.467 77.826C233.464 61.5465 210.276 41.4575 184.382 35.5265C171.426 32.5588 157.788 33.1344 143.913 39.5042C130.04 45.8727 115.952 58.023 102.075 78.1661C69.7542 125.083 69.0649 168.042 68.5345 201.094C68.4852 204.164 68.4374 207.147 68.3656 210.041C67.9431 227.09 66.6916 240.929 59.5616 250.729C52.4466 260.508 39.4119 266.343 15.2148 267.178L15.2144 267.767C39.4606 266.93 52.7174 261.082 59.9942 251.081C67.2561 241.099 68.4966 227.058 68.9183 210.037C68.9901 207.141 69.0381 204.157 69.0875 201.089C69.6191 168.043 70.3074 125.26 102.517 78.5047C116.349 58.4258 130.362 46.3591 144.117 40.0444C157.87 33.7309 171.388 33.1571 184.249 36.1029C209.99 41.9988 233.084 61.9881 250.09 78.2704L250.467 77.826ZM179.463 18.7619C205.357 24.6929 228.545 44.7819 245.548 61.0615L245.171 61.5058C228.165 45.2235 205.07 25.2342 179.329 19.3384C166.468 16.3925 152.951 16.9663 139.198 23.2798C125.442 29.5945 111.43 41.6613 97.5975 61.7401C65.3878 108.496 64.6996 151.278 64.1679 184.325L64.1678 184.331L64.1677 184.337C64.1184 187.401 64.0704 190.381 63.9988 193.272C63.577 210.293 62.3365 224.335 55.0747 234.316C47.7979 244.318 34.5411 250.165 10.2949 251.002L10.2952 250.413C34.4923 249.578 47.527 243.744 54.642 233.965C61.772 224.164 63.0236 210.325 63.4461 193.276C63.5177 190.385 63.5656 187.404 63.6148 184.337L63.6149 184.33C64.1453 151.277 64.8346 108.319 97.1557 61.4015C111.032 41.2585 125.121 29.1081 138.993 22.7396C152.869 16.3699 166.506 15.7943 179.463 18.7619ZM239.963 44.675C222.96 28.3955 199.773 8.30652 173.878 2.37546C160.922 -0.59216 147.284 -0.0165434 133.409 6.35319C119.536 12.7217 105.448 24.872 91.5715 45.0151C59.2504 91.9325 58.5611 134.891 58.0307 167.943C57.9815 171.013 57.9336 173.996 57.8619 176.89C57.4394 193.939 56.1878 207.778 49.0578 217.578C41.9428 227.358 28.9081 233.192 4.71104 234.027L4.71065 234.616C28.9569 233.779 42.2137 227.931 49.4905 217.93C56.7523 207.948 57.9928 193.907 58.4146 176.886C58.4863 173.99 58.5343 171.006 58.5837 167.938C59.1153 134.892 59.8036 92.1094 92.0133 45.3537C105.845 25.2748 119.858 13.2081 133.613 6.89339C147.366 0.579902 160.884 0.0061186 173.745 2.95195C199.486 8.84781 222.581 28.8371 239.586 45.1194L239.963 44.675Z" fill="url(#paint0_radial_1_275)" fill-opacity="0.58" shape-rendering="crispEdges"/>
</g>
<defs>
<filter id="filter0_d_1_275" x="0.710632" y="0.650383" width="422.645" height="450.664" filterUnits="userSpaceOnUse" color-interpolation-filters="sRGB">
<feFlood flood-opacity="0" result="BackgroundImageFix"/>
<feColorMatrix in="SourceAlpha" type="matrix" values="0 0 0 0 0 0 0 0 0 0 0 0 0 0 0 0 0 0 127 0" result="hardAlpha"/>
<feOffset dy="4"/>
<feGaussianBlur stdDeviation="2"/>
<feComposite in2="hardAlpha" operator="out"/>
<feColorMatrix type="matrix" values="0 0 0 0 0 0 0 0 0 0 0 0 0 0 0 0 0 0 0.25 0"/>
<feBlend mode="normal" in2="BackgroundImageFix" result="effect1_dropShadow_1_275"/>
<feBlend mode="normal" in="SourceGraphic" in2="effect1_dropShadow_1_275" result="shape"/>
</filter>
<radialGradient id="paint0_radial_1_275" cx="0" cy="0" r="1" gradientUnits="userSpaceOnUse" gradientTransform="translate(165.995 193.56) rotate(133.346) scale(202.361 204.517)">
<stop stop-color="white"/>
<stop offset="1" stop-color="#1E1E1E" stop-opacity="0"/>
<stop offset="1" stop-color="#0E0E35" stop-opacity="0"/>
<stop offset="1" stop-color="white" stop-opacity="0"/>
</radialGradient>
</defs>
</svg>
